<svg xmlns="http://www.w3.org/2000/svg" xmlns:xlink="http://www.w3.org/1999/xlink" xmlns:serif="http://www.serif.com/" width="100%" height="100%" viewBox="0 0 344 80" xml:space="preserve" style="fill-rule:evenodd;clip-rule:evenodd;stroke-linejoin:round;stroke-miterlimit:2;">    <g transform="matrix(1,0,0,1,-13680.7,-43.2194)">        <g transform="matrix(1.11,0,0,0.461538,13644.1,-39.0769)">            <g transform="matrix(0.0682289,0,0,0.16409,22.4743,150.309)">                <g id="Icon">                    <g>                        <g transform="matrix(46.8818,0,0,46.8818,-3572.04,-10055.1)">                            <path d="M114.023,232.714L114.023,232.69C114.023,231.526 113.135,230.95 112.127,230.686C112.811,230.41 113.555,229.834 113.555,228.694L113.555,228.67C113.555,227.41 112.463,226.606 110.831,226.606L107.363,226.606L107.363,235.006L111.011,235.006C112.823,235.006 114.023,234.118 114.023,232.714ZM112.919,228.754C112.919,229.87 112.019,230.482 110.759,230.482L107.987,230.482L107.987,227.182L110.819,227.182C112.163,227.182 112.919,227.806 112.919,228.73L112.919,228.754ZM113.387,232.714C113.387,233.77 112.475,234.43 111.035,234.43L107.987,234.43L107.987,231.058L110.831,231.058C112.487,231.058 113.387,231.658 113.387,232.69L113.387,232.714Z" style="fill:rgb(13,228,242);fill-rule:nonzero;"></path>                            <path d="M121.583,235.006L121.583,234.43L116.651,234.43L116.651,226.606L116.027,226.606L116.027,235.006L121.583,235.006Z" style="fill:rgb(13,228,242);fill-rule:nonzero;"></path>                            <path d="M129.971,231.442L129.971,226.606L129.347,226.606L129.347,231.514C129.347,233.542 128.255,234.574 126.551,234.574C124.775,234.574 123.707,233.434 123.707,231.454L123.707,226.606L123.083,226.606L123.083,231.514C123.083,233.866 124.511,235.138 126.527,235.138C128.567,235.138 129.971,233.854 129.971,231.442Z" style="fill:rgb(13,228,242);fill-rule:nonzero;"></path>                            <path d="M138.371,235.006L138.371,234.43L132.959,234.43L132.959,231.058L137.771,231.058L137.771,230.482L132.959,230.482L132.959,227.182L138.311,227.182L138.311,226.606L132.335,226.606L132.335,235.006L138.371,235.006Z" style="fill:rgb(13,228,242);fill-rule:nonzero;"></path>                            <path d="M143.159,232.834L141.155,226.606L139.559,226.606L142.487,235.066L143.759,235.066L145.823,229.03L147.887,235.066L149.159,235.066L152.087,226.606L150.539,226.606L148.535,232.834L146.471,226.582L145.223,226.582L143.159,232.834Z" style="fill:rgb(92,93,95);fill-rule:nonzero;"></path>                            <path d="M156.863,226.546L155.495,226.546L151.799,235.006L153.311,235.006L154.175,232.978L158.147,232.978L158.999,235.006L160.559,235.006L156.863,226.546ZM157.607,231.67L154.715,231.67L156.155,228.31L157.607,231.67Z" style="fill:rgb(92,93,95);fill-rule:nonzero;"></path>                            <path d="M164.243,233.062L161.711,226.606L160.079,226.606L163.571,235.066L164.867,235.066L168.359,226.606L166.763,226.606L164.243,233.062Z" style="fill:rgb(92,93,95);fill-rule:nonzero;"></path>                            <path d="M176.027,226.606L169.799,226.606L169.799,235.006L176.087,235.006L176.087,233.686L171.275,233.686L171.275,231.43L175.487,231.43L175.487,230.11L171.275,230.11L171.275,227.926L176.027,227.926L176.027,226.606Z" style="fill:rgb(92,93,95);fill-rule:nonzero;"></path>                        </g>                        <g transform="matrix(1,0,0,1,712.536,813.66)">                            <path d="M0,-298.251C-106.976,-161.943 -218.97,94.006 -484.462,216.287C-483.569,218.196 -423.971,321.658 -314.108,357.901C-314.108,357.901 -48.278,320.121 170.645,-114.015C348.841,-467.386 664.182,-608.986 675.785,-620.664C674.726,-621.596 280.885,-656.152 0,-298.251" style="fill:rgb(13,228,242);fill-rule:nonzero;"></path>                        </g>                        <g transform="matrix(1,0,0,1,677.615,641.232)">                            <path d="M0,-189.802C127.424,-347.064 275.973,-426.275 401.746,-465.713C182.088,-504.624 -712.416,-317.14 -487.43,314.822C-223.651,195.734 -108.395,-56.025 0,-189.802" style="fill:rgb(13,228,242);fill-rule:nonzero;"></path>                        </g>                        <g transform="matrix(-0.157022,0.987595,0.987595,0.157022,1041.04,627.822)">                            <path d="M123.545,-69.039C521.818,-215.793 641.836,-420.686 666.169,-478.135C661.328,-105.159 483.347,35.209 123.545,190.084C-247.419,349.763 -372.896,369.571 -513.759,509.77C-513.759,509.77 -480.771,153.636 123.545,-69.039" style="fill:rgb(13,228,242);fill-rule:nonzero;"></path>                        </g>                    </g>                </g>            </g>        </g>    </g></svg>