<svg xmlns="http://www.w3.org/2000/svg" viewBox="-50 100 1500 1150" width="100%" height="100%">
  <g>
    <g transform="matrix(1,0,0,1,712.536,813.66)">
      <path d="M0,-298.251C-106.976,-161.943 -218.97,94.006 -484.462,216.287C-483.569,218.196 -423.971,321.658 -314.108,357.901C-314.108,357.901 -48.278,320.121 170.645,-114.015C348.841,-467.386 664.182,-608.986 675.785,-620.664C674.726,-621.596 280.885,-656.152 0,-298.251" style="fill:rgb(13,228,242);fill-rule:nonzero;"/>
    </g>
    <g transform="matrix(1,0,0,1,677.615,641.232)">
      <path d="M0,-189.802C127.424,-347.064 275.973,-426.275 401.746,-465.713C182.088,-504.624 -712.416,-317.14 -487.43,314.822C-223.651,195.734 -108.395,-56.025 0,-189.802" style="fill:rgb(13,228,242);fill-rule:nonzero;"/>
    </g>
    <g transform="matrix(-0.157022,0.987595,0.987595,0.157022,1041.04,627.822)">
      <path d="M123.545,-69.039C521.818,-215.793 641.836,-420.686 666.169,-478.135C661.328,-105.159 483.347,35.209 123.545,190.084C-247.419,349.763 -372.896,369.571 -513.759,509.77C-513.759,509.77 -480.771,153.636 123.545,-69.039" style="fill:rgb(13,228,242);fill-rule:nonzero;"/>
    </g>
  </g>
</svg>